<?xml version="1.0" encoding="utf-8"?>
<svg viewBox="198.22 151.294 52.589 54.208" xmlns="http://www.w3.org/2000/svg">
  <defs>
    <linearGradient id="paint9_linear_0_1" x1="760" y1="768.778" x2="789.245" y2="826.311" gradientUnits="userSpaceOnUse" gradientTransform="matrix(1, 0, 0, 1, -559.889954, -615.00647)">
      <stop stop-color="#09C6F9"/>
      <stop offset="1" stop-color="#045DE9"/>
    </linearGradient>
  </defs>
  <path fill-rule="evenodd" clip-rule="evenodd" d="M 216.189 154.911 C 221.399 153.688 226.821 153.688 232.031 154.911 C 239.554 156.675 245.429 162.55 247.193 170.073 C 248.416 175.283 248.416 180.705 247.193 185.915 C 245.429 193.438 239.554 199.313 232.031 201.077 C 226.821 202.3 221.399 202.3 216.189 201.077 C 208.666 199.313 202.791 193.438 201.027 185.915 C 199.804 180.705 199.804 175.283 201.027 170.073 C 202.791 162.55 208.666 156.675 216.189 154.911 Z M 228.083 172.694 C 228.917 172.36 229.744 173.187 229.411 174.021 L 227.33 179.223 C 226.967 180.131 226.247 180.85 225.339 181.214 L 220.137 183.294 C 219.304 183.628 218.476 182.801 218.81 181.967 L 220.891 176.765 C 221.254 175.857 221.973 175.138 222.882 174.774 L 228.083 172.694 Z M 232.255 175.159 C 233.589 171.824 230.28 168.516 226.946 169.849 L 221.744 171.93 C 220.057 172.605 218.721 173.941 218.046 175.628 L 215.966 180.829 C 214.632 184.164 217.941 187.472 221.275 186.139 L 226.477 184.058 C 228.163 183.383 229.5 182.047 230.174 180.36 L 232.255 175.159 Z" fill="url(#paint9_linear_0_1)"/>
</svg>