<?xml version="1.0" encoding="utf-8"?>
<svg viewBox="8.913 6.239 65.062 49.02" xmlns="http://www.w3.org/2000/svg">
  <defs>
    <linearGradient id="paint11_linear_0_1" x1="512" y1="770.792" x2="534.593" y2="830.053" gradientUnits="userSpaceOnUse" gradientTransform="matrix(1, 0, 0, 1, -501.001801, -762.404724)">
      <stop stop-color="#09C6F9"/>
      <stop offset="1" stop-color="#045DE9"/>
    </linearGradient>
  </defs>
  <path fill-rule="evenodd" clip-rule="evenodd" d="M 30.145 8.595 C 35.152 8.595 39.446 11.449 41.602 15.57 C 44.248 14.388 47.195 13.729 50.3 13.729 C 61.699 13.729 70.998 22.622 70.998 33.662 C 70.998 44.702 61.698 53.595 50.3 53.595 L 26.114 53.595 C 17.798 53.595 10.998 47.105 10.998 39.028 C 10.998 33.776 13.879 29.192 18.173 26.632 C 17.545 25.095 17.2 23.413 17.2 21.654 C 17.2 14.515 22.922 8.595 30.145 8.595 Z M 21.386 21.654 C 21.386 16.628 25.381 12.686 30.145 12.686 C 33.538 12.686 36.532 14.675 37.983 17.642 C 35.363 19.513 33.216 21.967 31.751 24.811 C 31.65 25.005 31.553 25.201 31.46 25.399 C 31.273 25.331 31.085 25.267 30.895 25.206 C 29.39 24.723 27.782 24.462 26.114 24.462 C 24.697 24.462 23.322 24.65 22.017 25.004 C 21.61 23.972 21.386 22.842 21.386 21.654 Z" fill="url(#paint11_linear_0_1)"/>
</svg>