<?xml version="1.0" encoding="utf-8"?>
<svg viewBox="3.236 5.663 153.722 35.599" xmlns="http://www.w3.org/2000/svg">
  <defs>
    <linearGradient id="paint12_linear_0_1" x1="351" y1="842.852" x2="370.497" y2="881.207" gradientUnits="userSpaceOnUse" gradientTransform="matrix(1, 0, 0, 1, -266.093842, -835.537231)">
      <stop stop-color="#09C6F9"/>
      <stop offset="1" stop-color="#045DE9"/>
    </linearGradient>
    <linearGradient id="paint13_linear_0_1" x1="391" y1="842.852" x2="410.497" y2="881.207" gradientUnits="userSpaceOnUse" gradientTransform="matrix(1, 0, 0, 1, -266.093842, -835.537231)">
      <stop stop-color="#09C6F9"/>
      <stop offset="1" stop-color="#045DE9"/>
    </linearGradient>
    <linearGradient id="paint14_linear_0_1" x1="311" y1="842.852" x2="330.497" y2="881.207" gradientUnits="userSpaceOnUse" gradientTransform="matrix(1, 0, 0, 1, -266.093842, -835.537231)">
      <stop stop-color="#09C6F9"/>
      <stop offset="1" stop-color="#045DE9"/>
    </linearGradient>
    <linearGradient id="paint15_linear_0_1" x1="271" y1="842.852" x2="290.497" y2="881.207" gradientUnits="userSpaceOnUse" gradientTransform="matrix(1, 0, 0, 1, -266.093842, -835.537231)">
      <stop stop-color="#09C6F9"/>
      <stop offset="1" stop-color="#045DE9"/>
    </linearGradient>
  </defs>
  <circle cx="100.906" cy="23.463" r="16" fill="#FCA311"/>
  <circle cx="100.906" cy="23.463" r="16" fill="url(#paint12_linear_0_1)"/>
  <path d="M 96.099 27.463 L 96.099 24.475 L 93.279 19.063 L 95.019 19.063 L 96.879 22.939 L 98.727 19.063 L 100.443 19.063 L 97.635 24.475 L 97.635 27.463 L 96.099 27.463 Z M 103.383 27.463 L 103.383 20.299 L 100.935 20.299 L 100.935 19.063 L 107.379 19.063 L 107.379 20.299 L 104.919 20.299 L 104.919 27.463 L 103.383 27.463 Z" fill="white"/>
  <circle cx="140.906" cy="23.463" r="16" fill="#FCA311"/>
  <circle cx="140.906" cy="23.463" r="16" fill="url(#paint13_linear_0_1)"/>
  <path d="M 136.835 27.463 L 136.835 19.063 L 138.371 19.063 L 138.371 26.263 L 142.091 26.263 L 142.091 27.463 L 136.835 27.463 Z M 143.445 27.463 L 143.445 19.063 L 144.981 19.063 L 144.981 27.463 L 143.445 27.463 Z" fill="white"/>
  <circle cx="60.906" cy="23.463" r="16" fill="#FCA311"/>
  <circle cx="60.906" cy="23.463" r="16" fill="url(#paint14_linear_0_1)"/>
  <path d="M 54.722 27.463 L 54.722 19.063 L 56.258 19.063 L 56.258 27.463 L 54.722 27.463 Z M 61.558 27.607 C 60.766 27.607 60.074 27.427 59.482 27.067 C 58.89 26.707 58.43 26.207 58.102 25.567 C 57.774 24.919 57.61 24.167 57.61 23.311 C 57.61 22.447 57.778 21.687 58.114 21.031 C 58.458 20.367 58.942 19.851 59.566 19.483 C 60.198 19.107 60.946 18.919 61.81 18.919 C 62.794 18.919 63.61 19.155 64.258 19.627 C 64.906 20.099 65.326 20.751 65.518 21.583 L 63.802 21.583 C 63.674 21.191 63.442 20.887 63.106 20.671 C 62.77 20.447 62.338 20.335 61.81 20.335 C 60.97 20.335 60.322 20.603 59.866 21.139 C 59.41 21.667 59.182 22.395 59.182 23.323 C 59.182 24.251 59.406 24.971 59.854 25.483 C 60.31 25.987 60.926 26.239 61.702 26.239 C 62.462 26.239 63.034 26.035 63.418 25.627 C 63.81 25.211 64.046 24.667 64.126 23.995 L 62.002 23.995 L 62.002 22.843 L 65.674 22.843 L 65.674 27.463 L 64.258 27.463 L 64.138 26.359 C 63.866 26.759 63.526 27.067 63.118 27.283 C 62.71 27.499 62.19 27.607 61.558 27.607 Z" fill="white"/>
  <circle cx="20.906" cy="23.463" r="16" fill="#FCA311"/>
  <circle cx="20.906" cy="23.463" r="16" fill="url(#paint15_linear_0_1)"/>
  <path d="M 13.722 27.463 L 13.722 19.063 L 19.146 19.063 L 19.146 20.299 L 15.258 20.299 L 15.258 22.651 L 18.402 22.651 L 18.402 23.863 L 15.258 23.863 L 15.258 27.463 L 13.722 27.463 Z M 20.331 27.463 L 20.331 19.063 L 23.703 19.063 C 24.575 19.063 25.239 19.267 25.695 19.675 C 26.159 20.075 26.391 20.591 26.391 21.223 C 26.391 21.751 26.247 22.175 25.959 22.495 C 25.679 22.807 25.335 23.019 24.927 23.131 C 25.407 23.227 25.803 23.467 26.115 23.851 C 26.427 24.227 26.583 24.667 26.583 25.171 C 26.583 25.835 26.343 26.383 25.863 26.815 C 25.383 27.247 24.703 27.463 23.823 27.463 L 20.331 27.463 Z M 21.867 22.591 L 23.475 22.591 C 23.907 22.591 24.239 22.491 24.471 22.291 C 24.703 22.091 24.819 21.807 24.819 21.439 C 24.819 21.087 24.703 20.811 24.471 20.611 C 24.247 20.403 23.907 20.299 23.451 20.299 L 21.867 20.299 L 21.867 22.591 Z M 21.867 26.215 L 23.583 26.215 C 24.039 26.215 24.391 26.111 24.639 25.903 C 24.895 25.687 25.023 25.387 25.023 25.003 C 25.023 24.611 24.891 24.303 24.627 24.079 C 24.363 23.855 24.007 23.743 23.559 23.743 L 21.867 23.743 L 21.867 26.215 Z" fill="white"/>
</svg>